<svg width="51" height="51" viewBox="0 0 51 51" fill="none" xmlns="http://www.w3.org/2000/svg">
<path d="M43.5417 21.75C43.7417 21.75 43.9146 21.8896 43.9479 22.0854C44.1437 23.1813 44.25 24.3604 44.25 25.5C44.2557 30.1142 42.5541 34.5674 39.4729 38.0021C39.4014 38.0814 39.3017 38.1297 39.1951 38.1367C39.0885 38.1437 38.9834 38.1088 38.9021 38.0396L33.8083 33.7271C33.7644 33.6893 33.7287 33.6431 33.7031 33.5912C33.6776 33.5392 33.6628 33.4826 33.6597 33.4248C33.6565 33.367 33.6652 33.3092 33.685 33.2548C33.7048 33.2004 33.7354 33.1506 33.775 33.1083C34.8007 31.9918 35.5901 30.6794 36.0958 29.25H25.9167C25.8062 29.25 25.7002 29.2061 25.622 29.128C25.5439 29.0498 25.5 28.9438 25.5 28.8333V22.1667C25.5 21.9375 25.6875 21.75 25.9167 21.75H43.5417ZM30.6521 35.5C30.7271 35.4623 30.8114 35.4469 30.8948 35.4558C30.9783 35.4647 31.0575 35.4974 31.1229 35.55L36.4729 40.0771C36.5206 40.1168 36.5587 40.1669 36.5841 40.2236C36.6095 40.2803 36.6217 40.342 36.6197 40.404C36.6177 40.4661 36.6016 40.5269 36.5725 40.5818C36.5435 40.6367 36.5023 40.6843 36.4521 40.7208C33.2641 43.0211 29.4312 44.2562 25.5 44.25C22.3753 44.2503 19.3 43.4696 16.5537 41.979C13.8075 40.4883 11.4773 38.3349 9.775 35.7146C9.71927 35.6279 9.69818 35.5234 9.71594 35.4219C9.73369 35.3204 9.78899 35.2293 9.87083 35.1667L15.1729 31.0792C15.2217 31.0427 15.2776 31.017 15.337 31.0038C15.3964 30.9905 15.4579 30.9899 15.5175 31.0021C15.5771 31.0143 15.6335 31.039 15.6829 31.0745C15.7323 31.1101 15.7736 31.1557 15.8042 31.2083C17.2625 33.6849 19.6134 35.5095 22.3745 36.3075C25.1355 37.1056 28.0973 36.8167 30.6521 35.5ZM14.4167 27.4292C14.4312 27.5055 14.4241 27.5844 14.3961 27.657C14.3681 27.7295 14.3204 27.7928 14.2583 27.8396L8.56042 32.2292C8.51013 32.2686 8.45128 32.2957 8.38861 32.3083C8.32594 32.3209 8.26119 32.3185 8.19958 32.3015C8.13797 32.2845 8.08121 32.2532 8.03388 32.2103C7.98656 32.1673 7.94997 32.1138 7.92708 32.0542C7.14681 29.9572 6.74816 27.7375 6.75 25.5C6.75 23.1 7.20208 20.8042 8.025 18.6938C8.04811 18.6356 8.08428 18.5835 8.13072 18.5415C8.17716 18.4996 8.23262 18.4689 8.29283 18.4517C8.35303 18.4346 8.41637 18.4316 8.47794 18.4428C8.53951 18.4541 8.59766 18.4794 8.64792 18.5167L14.3396 22.6917C14.475 22.7896 14.5375 22.9625 14.5021 23.125C14.1961 24.5407 14.1685 26.0022 14.4167 27.4292ZM15.3896 19.5854C15.5896 19.7313 15.8708 19.6729 16.0042 19.4646C17.0201 17.8664 18.4231 16.5506 20.0831 15.639C21.743 14.7275 23.6062 14.2497 25.5 14.25C28.1188 14.2491 30.655 15.167 32.6667 16.8438C32.7479 16.9126 32.8518 16.9486 32.9582 16.9447C33.0646 16.9408 33.1656 16.8974 33.2417 16.8229L37.9625 12.1C38.002 12.0607 38.0332 12.0137 38.054 11.9619C38.0747 11.9102 38.0848 11.8547 38.0834 11.7989C38.082 11.7432 38.0693 11.6883 38.046 11.6376C38.0227 11.5869 37.9893 11.5415 37.9479 11.5042C34.5258 8.44032 30.0932 6.74741 25.5 6.75C22.4159 6.74794 19.379 7.5075 16.659 8.96126C13.9391 10.415 11.6202 12.518 9.90833 15.0833C9.85078 15.1715 9.82928 15.2783 9.84827 15.3819C9.86727 15.4854 9.92532 15.5776 10.0104 15.6396L15.3896 19.5854Z" fill="url(#paint0_linear_3_94)"/>
<defs>
<linearGradient id="paint0_linear_3_94" x1="25.5" y1="6.75" x2="25.5" y2="44.25" gradientUnits="userSpaceOnUse">
<stop stop-color="#1CFFFF"/>
<stop offset="1" stop-color="#0A0448"/>
</linearGradient>
</defs>
</svg>
