<svg width="166" height="160" viewBox="0 0 166 160" fill="none" xmlns="http://www.w3.org/2000/svg">
<path d="M66.598 0C43.6522 7.86079 26.4622 7.52371 3.56283 0C8.11349 7.54243 10.9204 11.6766 17.8744 18.3317C28.2924 25.5081 39.2296 27.0713 52.1256 27.1759C81.7386 20.2895 96.4943 25.4432 120.467 46.1508C120.661 33.3689 117.24 26.6736 105.834 15.4372C91.928 5.03302 86.9024 1.40821 66.598 0Z" fill="url(#paint0_linear_12_241)"/>
<path d="M71.4221 32.804C95.4233 31.5692 112.179 43.8865 118.699 53.5477C115.83 67.8563 110.021 77.4554 99.7236 83.7067V116.583C72.3106 113.227 62.5115 109.346 59.8442 95.6784C52.7742 97.014 49.0305 98.1797 43.1206 103.397C37.172 112.406 39.5815 117.836 47.9447 127.518C26.8344 127.011 16.3511 122.897 0.829163 106.613C3.6265 92.348 9.51921 82.697 20.7689 76.3224V43.8995C49.5749 44.5813 58.2827 49.1603 59.8442 65.1256C69.0605 64.0066 73.1363 62.0179 78.0151 55.4774C82.4793 44.746 80.7072 39.6156 71.4221 32.804Z" fill="url(#paint1_linear_12_241)"/>
<path d="M103.583 142.151C109.949 147.952 112.468 151.808 117.251 160C98.5856 152.744 79.9928 150.79 52.7689 158.392C11.6158 152.038 3.73638 142.391 0.829163 113.849C26.5869 135.954 38.517 138.257 68.6885 132.181C82.2342 132.417 94.8901 134.307 103.583 142.151Z" fill="url(#paint2_linear_12_241)"/>
<path d="M165.171 153.407C149.148 153.424 140.232 154.709 124.487 160C116.305 141.374 110.706 132.599 80.7488 124.623C93.5446 122.04 100.416 121.732 111.462 125.749C109.755 107.599 111.105 97.872 118.699 81.5276C126.74 67.0281 129.208 58.2158 129.151 41.005C124.765 22.1661 110.201 13.6672 92.8091 0C130.023 8.68741 145.437 16.1465 152.628 41.005C153.126 60.437 151.922 70.155 144.266 85.0653C138.969 94.1601 140.547 101.109 140.085 113.849C143.423 133.198 148.698 141.992 165.171 153.407Z" fill="url(#paint3_linear_12_241)"/>
<defs>
<linearGradient id="paint0_linear_12_241" x1="0.829163" y1="0" x2="165.171" y2="160.161" gradientUnits="userSpaceOnUse">
<stop stop-color="#1CFFFF"/>
<stop offset="0.796" stop-color="#0A0448"/>
</linearGradient>
<linearGradient id="paint1_linear_12_241" x1="0.829163" y1="0" x2="165.171" y2="160.161" gradientUnits="userSpaceOnUse">
<stop stop-color="#1CFFFF"/>
<stop offset="0.796" stop-color="#0A0448"/>
</linearGradient>
<linearGradient id="paint2_linear_12_241" x1="0.829163" y1="0" x2="165.171" y2="160.161" gradientUnits="userSpaceOnUse">
<stop stop-color="#1CFFFF"/>
<stop offset="0.796" stop-color="#0A0448"/>
</linearGradient>
<linearGradient id="paint3_linear_12_241" x1="0.829163" y1="0" x2="165.171" y2="160.161" gradientUnits="userSpaceOnUse">
<stop stop-color="#1CFFFF"/>
<stop offset="0.796" stop-color="#0A0448"/>
</linearGradient>
</defs>
</svg>
